<svg width="200" height="60" viewBox="0 0 200 60" xmlns="http://www.w3.org/2000/svg">
    <defs>
        <linearGradient id="gradient" x1="0%" y1="0%" x2="100%" y2="0%">
            <stop offset="0%" stop-color="#3b82f6" />
            <stop offset="100%" stop-color="#8b5cf6" />
        </linearGradient>
    </defs>
    
    <!-- Фон -->
    <rect x="0" y="0" width="200" height="60" rx="12" fill="white"/>
    
    <!-- Символ Tech -->
    <path d="M30 20 L30 40 L50 40 L50 35 L35 35 L35 20 Z" fill="url(#gradient)"/>
    <circle cx="60" cy="30" r="10" fill="url(#gradient)"/>
    <path d="M80 20 L80 40 L90 40 L90 20 Z M95 20 L105 20 L105 25 L100 25 L100 40 L95 40 Z" fill="url(#gradient)"/>
    
    <!-- Текст Technologia -->
    <text x="120" y="38" font-family="Arial, sans-serif" font-weight="bold" font-size="24" fill="#1e293b">
        Technologia
    </text>
    
    <!-- Декоративная линия под текстом -->
    <line x1="120" y1="42" x2="195" y2="42" stroke="url(#gradient)" stroke-width="2"/>
</svg>
<!-- Сохраните как favicon.svg, затем конвертируйте -->
<svg width="32" height="32" viewBox="0 0 32 32" xmlns="http://www.w3.org/2000/svg">
    <defs>
        <linearGradient id="gradient" x1="0%" y1="0%" x2="100%" y2="0%">
            <stop offset="0%" stop-color="#3b82f6" />
            <stop offset="100%" stop-color="#8b5cf6" />
        </linearGradient>
    </defs>
    
    <rect width="32" height="32" rx="6" fill="url(#gradient)"/>
    
    <!-- Символ T -->
    <path d="M11 10 L11 22 L13 22 L13 10 Z M7 12 L17 12 L17 10 L7 10 Z" fill="white"/>
    
    <!-- Декоративные элементы -->
    <circle cx="24" cy="16" r="2" fill="white" opacity="0.8"/>
    <circle cx="28" cy="16" r="1" fill="white" opacity="0.6"/>
</svg>
<svg width="180" height="180" viewBox="0 0 180 180" xmlns="http://www.w3.org/2000/svg">
    <defs>
        <linearGradient id="gradient" x1="0%" y1="0%" x2="100%" y2="0%">
            <stop offset="0%" stop-color="#3b82f6" />
            <stop offset="100%" stop-color="#8b5cf6" />
        </linearGradient>
    </defs>
    
    <!-- Фон -->
    <rect width="180" height="180" rx="36" fill="url(#gradient)"/>
    
    <!-- Символ Tech -->
    <path d="M60 60 L60 120 L90 120 L90 105 L75 105 L75 60 Z" fill="white"/>
    <circle cx="110" cy="90" r="25" fill="white" opacity="0.9"/>
    <path d="M135 60 L135 120 L150 120 L150 60 Z M155 60 L170 60 L170 75 L162.5 75 L162.5 120 L155 120 Z" fill="white"/>
</svg>